<?xml version="1.0" encoding="UTF-8"?>
<svg id="Layer_1" xmlns="http://www.w3.org/2000/svg" version="1.1" xmlns:xlink="http://www.w3.org/1999/xlink" viewBox="0 0 128 128">
  <!-- Generator: Adobe Illustrator 30.0.0, SVG Export Plug-In . SVG Version: 2.1.1 Build 123)  -->
  <defs>
    <style>
      .st0 {
        fill: url(#linear-gradient2);
      }

      .st1 {
        stroke: url(#linear-gradient1);
      }

      .st1, .st2, .st3, .st4 {
        fill: none;
        stroke-linecap: round;
      }

      .st1, .st3 {
        stroke-width: 2.6px;
      }

      .st2 {
        stroke: url(#linear-gradient4);
      }

      .st2, .st4 {
        stroke-width: 2.2px;
      }

      .st3 {
        stroke: url(#linear-gradient3);
      }

      .st5 {
        fill: url(#linear-gradient);
      }

      .st4 {
        stroke: url(#linear-gradient5);
      }
    </style>
    <linearGradient id="linear-gradient" x1="84.9" y1="70.4" x2="103.9" y2="17.4" gradientTransform="translate(0 130) scale(1 -1)" gradientUnits="userSpaceOnUse">
      <stop offset="0" stop-color="#eee6dc"/>
      <stop offset=".5" stop-color="#c7b9aa"/>
      <stop offset="1" stop-color="#8f8172"/>
    </linearGradient>
    <linearGradient id="linear-gradient1" x1="81.7" y1="68.9" x2="97.7" y2="19.9" gradientTransform="translate(0 130) scale(1 -1)" gradientUnits="userSpaceOnUse">
      <stop offset="0" stop-color="#fff" stop-opacity=".4"/>
      <stop offset=".5" stop-color="#e4dbd1" stop-opacity=".2"/>
      <stop offset="1" stop-color="#fff" stop-opacity="0"/>
    </linearGradient>
    <linearGradient id="linear-gradient2" x1="63" y1="112.3" x2="91" y2="76.3" gradientTransform="translate(0 130) scale(1 -1)" gradientUnits="userSpaceOnUse">
      <stop offset="0" stop-color="#b79a7d"/>
      <stop offset=".6" stop-color="#7b624a"/>
      <stop offset="1" stop-color="#45362a"/>
    </linearGradient>
    <linearGradient id="linear-gradient3" x1="82.5" y1="90.3" x2="97.9" y2="140.7" gradientTransform="translate(0 -30)" gradientUnits="userSpaceOnUse">
      <stop offset="0" stop-color="#fff4df" stop-opacity=".4"/>
      <stop offset=".5" stop-color="#c6a987" stop-opacity=".1"/>
      <stop offset="1" stop-color="#fff" stop-opacity="0"/>
    </linearGradient>
    <linearGradient id="linear-gradient4" x1="68.5" y1="113.4" x2="77.8" y2="78.5" gradientTransform="translate(0 130) scale(1 -1)" gradientUnits="userSpaceOnUse">
      <stop offset="0" stop-color="#d9c3ab" stop-opacity=".3"/>
      <stop offset=".6" stop-color="#a88c70" stop-opacity=".1"/>
      <stop offset="1" stop-color="#fff" stop-opacity="0"/>
    </linearGradient>
    <linearGradient id="linear-gradient5" x1="69" y1="45.6" x2="78.4" y2="82.2" gradientTransform="translate(0 -30)" gradientUnits="userSpaceOnUse">
      <stop offset="0" stop-color="#f2d9b8" stop-opacity=".4"/>
      <stop offset=".6" stop-color="#d4b28d" stop-opacity=".2"/>
      <stop offset="1" stop-color="#fff" stop-opacity="0"/>
    </linearGradient>
  </defs>
  <path class="st5" d="M82.1,60.9c-2.1.4-2.2,1.8-1.7,3.5,3.2,10.1,13,40.6,15.5,46.9,1.2,2.8,3.4,4.9,4,.3-.7-8.6-4.5-39-6.5-49.4-.4-2-2.6-3.4-4.8-2.9"/>
  <path class="st1" d="M84.3,63.9c2.5,9.3,8.3,31.4,10.8,43.5"/>
  <path class="st0" d="M74.3,11.6c6.9,9.7,22.9,18.9,20.2,33.3-.4,2.3-2,4.6-4.3,5.2-1.5.4-8.1,2-11.1,2.7-7,1.9-12.6-4.8-13.1-11.8-.8-10.1,4.8-19.6,7.8-28.8,0-.3.2-.5.3-.6.1,0,.1,0,.2,0h0Z"/>
  <path class="st3" d="M84.8,63.8c2.6,9.6,8.6,32.3,11.2,44.8"/>
  <path class="st2" d="M74.4,19.3c-2.7,7.2-5.3,14.9-4.1,22.8.4,2.7,1.4,4.8,3.1,6.4"/>
  <path class="st4" d="M75.1,18.9c-2.9,7.3-5.7,15.2-4.4,23.3.5,2.7,1.6,4.9,3.3,6.5"/>
</svg>