<?xml version="1.0" encoding="UTF-8"?>
<svg id="Layer_1" xmlns="http://www.w3.org/2000/svg" version="1.1" xmlns:xlink="http://www.w3.org/1999/xlink" viewBox="0 0 128 128">
  <!-- Generator: Adobe Illustrator 30.0.0, SVG Export Plug-In . SVG Version: 2.1.1 Build 123)  -->
  <defs>
    <style>
      .st0 {
        fill: url(#linear-gradient2);
      }

      .st1 {
        stroke: url(#linear-gradient1);
        stroke-width: 2.2px;
      }

      .st1, .st2 {
        fill: none;
        stroke-linecap: round;
      }

      .st2 {
        stroke: url(#linear-gradient3);
        stroke-width: 2.6px;
      }

      .st3 {
        fill: url(#linear-gradient);
      }
    </style>
    <linearGradient id="linear-gradient" x1="62.9" y1="111.5" x2="91.9" y2="75.5" gradientTransform="translate(0 130) scale(1 -1)" gradientUnits="userSpaceOnUse">
      <stop offset="0" stop-color="#caa582"/>
      <stop offset=".5" stop-color="#9c7654"/>
      <stop offset="1" stop-color="#5d4634"/>
    </linearGradient>
    <linearGradient id="linear-gradient1" x1="69.1" y1="114.4" x2="78.5" y2="77.8" gradientTransform="translate(0 130) scale(1 -1)" gradientUnits="userSpaceOnUse">
      <stop offset="0" stop-color="#f2d9b8" stop-opacity=".4"/>
      <stop offset=".6" stop-color="#d4b28d" stop-opacity=".2"/>
      <stop offset="1" stop-color="#fff" stop-opacity="0"/>
    </linearGradient>
    <linearGradient id="linear-gradient2" x1="85.3" y1="69.8" x2="104.3" y2="14.8" gradientTransform="translate(0 130) scale(1 -1)" gradientUnits="userSpaceOnUse">
      <stop offset="0" stop-color="#3a3228"/>
      <stop offset=".5" stop-color="#1c1712"/>
      <stop offset="1" stop-color="#090806"/>
    </linearGradient>
    <linearGradient id="linear-gradient3" x1="82.5" y1="69.7" x2="97.9" y2="19.3" gradientTransform="translate(0 130) scale(1 -1)" gradientUnits="userSpaceOnUse">
      <stop offset="0" stop-color="#fff4df" stop-opacity=".4"/>
      <stop offset=".5" stop-color="#c6a987" stop-opacity=".1"/>
      <stop offset="1" stop-color="#fff" stop-opacity="0"/>
    </linearGradient>
  </defs>
  <path class="st3" d="M74.2,11.9c5.2,8,23.3,18.6,20.3,33.3-.5,2.4-2,4.2-3.9,4.8l-13,3.1c-1.9.2-3.8-.3-5.4-1.4-3.6-2-5.9-6.2-6.2-11.1-.6-10.4,5.6-20.4,8.2-29.1h0v.2h0v.2Z"/>
  <path class="st1" d="M75.1,18.9c-2.9,7.3-5.7,15.2-4.4,23.3.5,2.7,1.6,4.9,3.3,6.5"/>
  <path class="st0" d="M82.1,61.1c-2.1.4-2.2,1.8-1.7,3.5,3.2,10.1,13,40.6,15.5,46.9,1.2,2.8,3.4,4.9,4,.3-.7-8.6-4.5-39-6.5-49.4-.4-2-2.6-3.4-4.8-2.9"/>
  <path class="st2" d="M84.8,63.8c2.6,9.6,8.6,32.3,11.2,44.8"/>
</svg>