<?xml version="1.0" encoding="UTF-8"?>
<svg id="Layer_1" xmlns="http://www.w3.org/2000/svg" version="1.1" viewBox="0 0 128 128">
  <!-- Generator: Adobe Illustrator 30.0.0, SVG Export Plug-In . SVG Version: 2.1.1 Build 123)  -->
  <defs>
    <style>
      .st0 {
        fill: #d9ad8d;
      }

      .st1 {
        fill: #fff8f0;
      }
    </style>
  </defs>
  <path class="st0" d="M69.7,10.9c5.2,8,23.3,18.6,20.3,33.3-.5,2.4-2,4.2-3.9,4.8l-13,3.1c-1.9.2-3.8-.3-5.4-1.4-3.6-2-5.9-6.2-6.2-11.1-.6-10.4,5.6-20.4,8.2-29.1h0v.2s0,.1,0,.1Z"/>
  <path class="st1" d="M77.6,60.1c-2.1.4-2.2,1.8-1.7,3.5,3.2,10.1,13,40.6,15.5,46.9,1.2,2.8,3.4,4.9,4,.3-.7-8.6-4.5-39-6.5-49.4-.4-2-2.6-3.4-4.8-2.9"/>
</svg>
