<svg xmlns="http://www.w3.org/2000/svg" viewBox="0 0 64 64">
  <defs>
    <linearGradient id="ks-dash" x1="0" y1="0" x2="1" y2="0">
      <stop offset="0" stop-color="#e07f1c"/>
      <stop offset="0.55" stop-color="#b23a88"/>
      <stop offset="1" stop-color="#2e93b8"/>
    </linearGradient>
  </defs>
  <rect width="64" height="64" rx="14" fill="#1a1a1e"/>
  <g transform="translate(11.58 46) scale(0.023571 -0.023571)" fill="#e0851a">
    <path d="M508.5968017578125 559.7991333007812 1069.0003051757812 1098.6031494140625Q1115.1997680664062 1142.8026733398438 1129.8995666503906 1176.4023132324219Q1144.599365234375 1210.001953125 1133.0993957519531 1233.7016906738281Q1121.5994262695312 1257.4014282226562 1087.599609375 1270.80126953125L1047.1989135742188 1283.6012573242188Q1023.7990112304688 1293.8011474609375 1012.4990844726562 1307.8009948730469Q1001.1991577148438 1321.8008422851562 1001.1991577148438 1344.2006225585938Q1001.1991577148438 1370.4003295898438 1019.0989990234375 1385.2001647949219Q1036.9988403320312 1400 1073.7984619140625 1400H1491.1968994140625Q1528.7965698242188 1400 1546.4963989257812 1385.2001647949219Q1564.1962280273438 1370.4003295898438 1564.1962280273438 1344.2006225585938Q1564.1962280273438 1321.0008544921875 1550.0963134765625 1308.6009826660156Q1535.9963989257812 1296.2011108398438 1495.7965698242188 1280.0012817382812Q1480.7965087890625 1274.8013305664062 1464.8965148925781 1266.3013916015625Q1448.9965209960938 1257.8014526367188 1423.9966735839844 1238.5016174316406Q1398.996826171875 1219.2017822265625 1357.6972045898438 1182.1021118164062Q1316.3975830078125 1145.00244140625 1248.3982543945312 1083.60302734375L561.1963500976562 445.8001708984375ZM730.7984619140625 719.0012817382812 1028.5949096679688 965.3982543945312 1496.7954711914062 199.19854736328125Q1519.79541015625 161.99871826171875 1540.3955383300781 145.89871215820312Q1560.9956665039062 129.7987060546875 1584.9959716796875 123.99871826171875Q1614.9961547851562 111.59881591796875 1625.8961486816406 94.5989990234375Q1636.796142578125 77.59918212890625 1636.796142578125 55.599365234375Q1636.796142578125 30.399658203125 1618.7962951660156 15.1998291015625Q1600.7964477539062 0 1563.5968017578125 0H1038.79931640625Q1001.399658203125 0 983.5998229980469 15.299835205078125Q965.7999877929688 30.59967041015625 965.7999877929688 56.599365234375Q965.7999877929688 79.19915771484375 976.8999328613281 93.99899291992188Q987.9998779296875 108.798828125 1005.7998657226562 114.79876708984375L1045.8006591796875 125.3988037109375Q1065.4007568359375 131.79876708984375 1065.5007934570312 149.2987060546875Q1065.600830078125 166.79864501953125 1043.4009399414062 203.598388671875ZM627.5960693359375 192.59844970703125Q627.5960693359375 168.79852294921875 637.7961120605469 154.3985595703125Q647.9961547851562 139.99859619140625 669.9961547851562 131.59869384765625L710.3968505859375 118.19873046875Q737.3966674804688 105.598876953125 747.0966186523438 91.9990234375Q756.7965698242188 78.399169921875 756.7965698242188 55.79937744140625Q756.7965698242188 30.59967041015625 739.2967529296875 15.299835205078125Q721.7969360351562 0 684.5972900390625 0H168.19976806640625Q131.20013427734375 0 113.60031127929688 15.299835205078125Q96.00048828125 30.59967041015625 96.00048828125 55.79937744140625Q96.00048828125 101.19891357421875 142.6002197265625 118.19873046875L190.80078125 131.59869384765625Q216.20074462890625 139.1986083984375 228.80075073242188 153.99856567382812Q241.4007568359375 168.79852294921875 241.4007568359375 192.59844970703125V1207.4015502929688Q241.4007568359375 1231.2014770507812 228.80075073242188 1246.0014343261719Q216.20074462890625 1260.8013916015625 190.80078125 1268.4013061523438L142.6002197265625 1281.80126953125Q96.00048828125 1298.8010864257812 96.00048828125 1344.2006225585938Q96.00048828125 1370.4003295898438 113.60031127929688 1385.2001647949219Q131.20013427734375 1400 168.19976806640625 1400H699.7970581054688Q736.9967041015625 1400 754.3965148925781 1385.2001647949219Q771.7963256835938 1370.4003295898438 771.7963256835938 1344.2006225585938Q771.7963256835938 1298.8010864257812 725.3966064453125 1281.80126953125L678.196044921875 1268.4013061523438Q653.5960693359375 1260.8013916015625 640.5960693359375 1246.0014343261719Q627.5960693359375 1231.2014770507812 627.5960693359375 1207.4015502929688Z"/>
  </g>
  <rect x="17" y="51.5" width="30" height="4.5" rx="2.25" fill="url(#ks-dash)"/>
</svg>
